<?xml version="1.0" encoding="UTF-8"?>
<!DOCTYPE svg PUBLIC "-//W3C//DTD SVG 1.1//EN" "http://www.w3.org/Graphics/SVG/1.1/DTD/svg11.dtd">
<!-- Creator: CorelDRAW 2017 -->
<svg xmlns="http://www.w3.org/2000/svg" xml:space="preserve" width="2586px" height="340px" version="1.1" style="shape-rendering:geometricPrecision; text-rendering:geometricPrecision; image-rendering:optimizeQuality; fill-rule:evenodd; clip-rule:evenodd"
viewBox="0 0 2586 339.55"
 xmlns:xlink="http://www.w3.org/1999/xlink">
 <defs>
  <style type="text/css">
   <![CDATA[
    .fil0 {fill:#FE2020;fill-rule:nonzero}
   ]]>
  </style>
 </defs>
 <g id="Layer_x0020_1">
  <metadata id="CorelCorpID_0Corel-Layer"/>
  <path class="fil0" d="M390 0c7.44,0 11.16,3.56 11.16,10.67l0 47.54c0,7.44 -3.72,11.16 -11.16,11.16l-152.31 0 0 259.51c0,7.11 -3.56,10.67 -10.68,10.67l-52.87 0c-7.11,0 -10.67,-3.56 -10.67,-10.67l0 -259.51 -152.31 0c-7.44,0 -11.16,-3.72 -11.16,-11.16l0 -47.54c0,-7.11 3.72,-10.67 11.16,-10.67l378.84 0z"/>
  <path id="1" class="fil0" d="M780 0c7.43,0 11.15,3.56 11.15,10.67l0 46.08c0,7.12 -3.72,10.67 -11.15,10.67l-211.98 0c-12.61,0 -23.04,1.06 -31.29,3.16 -8.24,2.1 -14.87,5.66 -19.89,10.67 -5.01,5.01 -8.48,11.8 -10.42,20.37 -1.94,8.57 -2.91,19.16 -2.91,31.78l0 4.85 274.06 0c7.12,0 10.67,3.55 10.67,10.67l0 38.32c0,7.11 -3.55,10.67 -10.67,10.67l-274.06 0 0 8.25c0,12.61 0.97,23.2 2.91,31.77 1.94,8.57 5.41,15.36 10.42,20.37 5.02,5.01 11.65,8.57 19.89,10.67 8.25,2.1 18.68,3.16 31.29,3.16l211.98 0c7.43,0 11.15,3.55 11.15,10.67l0 46.08c0,7.11 -3.72,10.67 -11.15,10.67l-213.44 0c-24.57,0 -45.43,-2.26 -62.57,-6.79 -17.14,-4.53 -31.13,-11.88 -41.96,-22.07 -10.83,-10.19 -18.75,-23.45 -23.77,-39.78 -5.01,-16.33 -7.52,-36.13 -7.52,-59.42l0 -83.43c0,-23.28 2.51,-43.01 7.52,-59.18 5.02,-16.17 12.94,-29.35 23.77,-39.53 10.83,-10.19 24.82,-17.63 41.96,-22.32 17.14,-4.69 38,-7.03 62.57,-7.03l213.44 0z"/>
  <path id="2" class="fil0" d="M909.51 0c7.12,0 10.67,3.56 10.67,10.67l0 193.55c0,12.93 1.05,23.68 3.16,32.25 2.1,8.57 5.57,15.36 10.42,20.38 4.86,5.01 11.4,8.57 19.65,10.67 8.25,2.1 18.67,3.15 31.29,3.15l196.45 0c7.12,0 10.67,3.56 10.67,10.67l0 47.54c0,7.11 -3.55,10.67 -10.67,10.67l-199.36 0c-24.58,0 -45.44,-2.26 -62.58,-6.79 -17.14,-4.53 -31.12,-11.88 -41.96,-22.07 -10.83,-10.19 -18.75,-23.45 -23.76,-39.78 -5.02,-16.33 -7.52,-36.13 -7.52,-59.42l0 -200.82c0,-7.11 3.72,-10.67 11.15,-10.67l52.39 0z"/>
  <path id="3" class="fil0" d="M1517.31 0c24.57,0 45.51,2.34 62.81,7.03 17.3,4.69 31.37,12.13 42.21,22.32 10.83,10.18 18.67,23.36 23.52,39.53 4.85,16.17 7.28,35.9 7.28,59.18l0 83.43c0,23.29 -2.43,43.09 -7.28,59.42 -4.85,16.33 -12.69,29.59 -23.52,39.78 -10.84,10.19 -24.91,17.54 -42.21,22.07 -17.3,4.53 -38.24,6.79 -62.81,6.79l-149.89 0c-24.58,0 -45.44,-2.26 -62.58,-6.79 -17.13,-4.53 -31.12,-11.88 -41.95,-22.07 -10.84,-10.19 -18.76,-23.45 -23.77,-39.78 -5.02,-16.33 -7.52,-36.13 -7.52,-59.42l0 -83.43c0,-23.28 2.5,-43.01 7.52,-59.18 5.01,-16.17 12.93,-29.35 23.77,-39.53 10.83,-10.19 24.82,-17.63 41.95,-22.32 17.14,-4.69 38,-7.03 62.58,-7.03l149.89 0zm-211.49 206.16c0,12.61 1.05,23.2 3.15,31.77 2.1,8.57 5.58,15.36 10.43,20.37 4.85,5.01 11.4,8.57 19.64,10.67 8.25,2.1 18.68,3.16 31.29,3.16l144.07 0c12.61,0 23.04,-1.06 31.28,-3.16 8.25,-2.1 14.8,-5.66 19.65,-10.67 4.85,-5.01 8.33,-11.8 10.43,-20.37 2.1,-8.57 3.15,-19.16 3.15,-31.77l0 -72.76c0,-12.62 -1.05,-23.21 -3.15,-31.78 -2.1,-8.57 -5.58,-15.36 -10.43,-20.37 -4.85,-5.01 -11.4,-8.57 -19.65,-10.67 -8.24,-2.1 -18.67,-3.16 -31.28,-3.16l-144.07 0c-12.61,0 -23.04,1.06 -31.29,3.16 -8.24,2.1 -14.79,5.66 -19.64,10.67 -4.85,5.01 -8.33,11.8 -10.43,20.37 -2.1,8.57 -3.15,19.16 -3.15,31.78l0 72.76z"/>
  <path id="4" class="fil0" d="M1988.31 0c37.19,0 63.87,8.41 80.04,25.22 16.17,16.82 24.25,41.72 24.25,74.7l0 27.65c0,27.82 -5.66,49.81 -16.98,65.97 -11.31,16.17 -29.75,26.52 -55.29,31.05l82.94 102.83c1.62,1.62 2.11,4.05 1.46,7.28 -0.65,3.23 -3.24,4.85 -7.76,4.85l-62.58 0c-4.2,0 -7.11,-0.48 -8.73,-1.45 -1.61,-0.98 -3.23,-2.59 -4.85,-4.85l-76.64 -100.9 -156.68 0 0 96.53c0,7.11 -3.56,10.67 -10.67,10.67l-52.39 0c-7.44,0 -11.15,-3.56 -11.15,-10.67l0 -314.33c0,-9.7 4.85,-14.55 14.55,-14.55l260.48 0zm-200.82 173.17l185.78 0c16.5,0 28.14,-3.56 34.93,-10.67 6.79,-7.11 10.19,-17.95 10.19,-32.5l0 -20.37c0,-14.56 -3.4,-25.39 -10.19,-32.5 -6.79,-7.12 -18.43,-10.67 -34.93,-10.67l-179.47 0c-4.21,0 -6.31,1.94 -6.31,5.82l0 100.89z"/>
  <path id="5" class="fil0" d="M2367.64 0c12.29,0 22.63,2.51 31.04,7.52 8.41,5.01 16.66,14.79 24.74,29.35l160.56 291.52c1.62,3.24 2.02,5.91 1.21,8.01 -0.81,2.1 -3.15,3.15 -7.03,3.15l-61.61 0c-5.49,0 -9.21,-2.1 -11.15,-6.3l-34.44 -62.58 -227.99 0 -33.47 62.58c-2.26,4.2 -5.98,6.3 -11.15,6.3l-63.06 0c-4.21,0 -6.71,-1.05 -7.52,-3.15 -0.81,-2.1 -0.4,-4.77 1.21,-8.01l159.11 -291.52c8.08,-14.56 16,-24.34 23.76,-29.35 7.77,-5.01 16.82,-7.52 27.17,-7.52l28.62 0zm-94.11 214.4l166.87 0 -77.13 -142.12c-1.29,-2.27 -3.07,-3.4 -5.33,-3.4l-2.91 0c-2.27,0 -4.05,1.13 -5.34,3.4l-76.16 142.12z"/>
 </g>
</svg>
